{"title":"The.Pianist.2002.720p.HDDVD.x264-ESiR","uid":7125738,"size":8523613523,"categoryP":"video","categoryS":"hd___movies","magnet":"?xt=urn:btih:49aa9784edf23a259fc044309491e6a12002ef6d&amp;dn=The.Pianist.2002.720p.HDDVD.x264-ESiR&amp;tr=udp%3A%2F%2Ftracker.openbittorrent.com%3A80&amp;tr=udp%3A%2F%2Fopen.demonii.com%3A1337&amp;tr=udp%3A%2F%2Ftracker.coppersurfer.tk%3A6969&amp;tr=udp%3A%2F%2Fexodus.desync.com%3A6969","seeders":3,"leechers":2,"uploader":"mfccorrea","files":2,"time":1332528204,"description":"Filmmaker Roman Polanski, who as a boy growing up in Poland watched while the Nazis devastated his country during World War II, directed this downbeat drama based on the true story of a privileged musician who spent five years struggling against the Nazi occupation of Warsaw. The Pianist was based on the memoir of the same name by the real-life Wladyslaw Szpilman; the book was first published in 1946 as Death of a City, but was banned by Polish Communist officials and went out of print until 1998, when a new edition was issued as The Pianist.\n\n      Complete name : The.Pianist.2002.720p.HDDVD.x264-ESiR.mkv\n      Format : Matroska\n      File size : 7.94 GiB\n      Duration : 2h 28mn\n      Overall bit rate : 7 640 Kbps\n      Movie name : The Pianist (2002)\n      Encoded date : UTC 2007-05-10 20:59:29\n      Writing application : mkvmerge v2.0.2 ('You're My Flame') built on Feb 21 2007 23:40:55\n      Writing library : libebml v0.7.7 + libmatroska v0.8.1\n      Cover : Yes / Yes\n   Video #1\n      ID : 1\n      Format : AVC\n      Format/Info : Advanced Video Codec\n      Format profile : &lt;a class=&quot;__cf_email__&quot; href=&quot;/cdn-cgi/l/email-protection&quot; data-cfemail=&quot;da92b3bdb29a96eff4eb&quot;&gt;[email&amp;#160;protected]&lt;/a&gt;&lt;script cf-hash='f9e31' type=&quot;text/javascript&quot;&gt;\n/* &lt;![CDATA[ */!function(){try{var t=&quot;currentScript&quot;in document?document.currentScript:function(){for(var t=document.getElementsByTagName(&quot;script&quot;),e=t.length;e--;)if(t[e].getAttribute(&quot;cf-hash&quot;))return t[e]}();if(t&amp;&amp;t.previousSibling){var e,r,n,i,c=t.previousSibling,a=c.getAttribute(&quot;data-cfemail&quot;);if(a){for(e=&quot;&quot;,r=parseInt(a.substr(0,2),16),n=2;a.length-n;n+=2)i=parseInt(a.substr(n,2),16)^r,e+=String.fromCharCode(i);e=document.createTextNode(e),c.parentNode.replaceChild(e,c)}}}catch(u){}}();/* ]]&gt; */&lt;/script&gt;\n      Format settings, CABAC : Yes\n      Format settings, ReFrames : 8 frames\n      Muxing mode : Container profile=&lt;a class=&quot;__cf_email__&quot; href=&quot;/cdn-cgi/l/email-protection&quot; data-cfemail=&quot;fca9929792938b92bcc9d2cd&quot;&gt;[email&amp;#160;protected]&lt;/a&gt;&lt;script cf-hash='f9e31' type=&quot;text/javascript&quot;&gt;\n/* &lt;![CDATA[ */!function(){try{var t=&quot;currentScript&quot;in document?document.currentScript:function(){for(var t=document.getElementsByTagName(&quot;script&quot;),e=t.length;e--;)if(t[e].getAttribute(&quot;cf-hash&quot;))return t[e]}();if(t&amp;&amp;t.previousSibling){var e,r,n,i,c=t.previousSibling,a=c.getAttribute(&quot;data-cfemail&quot;);if(a){for(e=&quot;&quot;,r=parseInt(a.substr(0,2),16),n=2;a.length-n;n+=2)i=parseInt(a.substr(n,2),16)^r,e+=String.fromCharCode(i);e=document.createTextNode(e),c.parentNode.replaceChild(e,c)}}}catch(u){}}();/* ]]&gt; */&lt;/script&gt;\n      Codec ID : V_MPEG4/ISO/AVC\n      Duration : 2h 28mn\n      Bit rate : 5 978 Kbps\n      Nominal bit rate : 6 129 Kbps\n      Width : 1 280 pixels\n      Height : 688 pixels\n      Display aspect ratio : 1.860\n      Frame rate : 23.976 fps\n      Resolution : 24 bits\n      Colorimetry : 4:2:0\n      Scan type : Progressive\n      Bits/(Pixel*Frame) : 0.283\n      Stream size : 6.21 GiB (78%)\n      Writing library : x264 core 54\n   Audio #2\n      ID : 2\n      Format : DTS\n      Format/Info : Digital Theater Systems\n      Codec ID : A_DTS\n      Duration : 2h 28mn\n      Bit rate mode : Constant\n      Bit rate : 1 510 Kbps\n      Channel(s) : 6 channels\n      Channel positions : Front: L C R, Surround: L R, LFE\n      Sampling rate : 48.0 KHz\n      Resolution : 16 bits\n      Stream size : 1.57 GiB (20%)\n      Language : English\n   Text #3 to #11\n      Format : ASS\n      Language : English, Finish, Romanian, Czech, Danish, Dutch, Norwegian, Slovenian, Spanish\n   &lt;a href=&quot;\nhttp://www.imdb.com/title/tt0253474/&quot; rel=&quot;nofollow&quot; target=&quot;_NEW&quot;&gt;\nhttp://www.imdb.com/title/tt0253474/&lt;/a&gt;\n\nAudio: English, German, Russian\nSubtitles: English, Finish, Romanian, Czech, Danish, Dutch, Norwegian, Slovenian, Spanish (muxed im mkv), Portuguese (srt)","torrent":{"xt":"urn:btih:49aa9784edf23a259fc044309491e6a12002ef6d","amp;dn":"The.Pianist.2002.720p.HDDVD.x264-ESiR","amp;tr":["udp%3A%2F%2Ftracker.openbittorrent.com%3A80","udp%3A%2F%2Fopen.demonii.com%3A1337","udp%3A%2F%2Ftracker.coppersurfer.tk%3A6969","udp%3A%2F%2Fexodus.desync.com%3A6969"],"infoHash":"49aa9784edf23a259fc044309491e6a12002ef6d","infoHashBuffer":{"type":"Buffer","data":[73,170,151,132,237,242,58,37,159,192,68,48,148,145,230,161,32,2,239,109]},"announce":[],"urlList":[]}}